<svg width="137" height="36" viewBox="0 0 137 36" fill="none" xmlns="http://www.w3.org/2000/svg">
<path d="M7.88861 13.4727H27.345V30.4965H7.88861V13.4727Z" fill="#EBEFF2"/>
<path d="M5.02106 16.0327H9.42358V28.6285H5.02106V16.0327Z" fill="#E2DEE2"/>
<path d="M7.29333 16.0327H9.42356V28.6285H7.29333V16.0327Z" fill="#CBC4CC"/>
<path d="M9.63664 30.4965H4.80801C4.21977 30.4965 3.74286 30.0197 3.74286 29.4314C3.74286 28.8431 4.2197 28.3662 4.80801 28.3662H9.63657C10.2248 28.3662 10.7017 28.8431 10.7017 29.4314C10.7017 30.0197 10.2249 30.4965 9.63664 30.4965Z" fill="#F3F0F3"/>
<path d="M9.63664 28.3667H7.50641C8.09464 28.3667 8.57156 28.8436 8.57156 29.4318C8.57156 30.0201 8.09471 30.497 7.50641 30.497H9.63664C10.2249 30.497 10.7018 30.0202 10.7018 29.4318C10.7018 28.8435 10.2249 28.3667 9.63664 28.3667Z" fill="#E2DEE2"/>
<path d="M9.63664 16.3832H4.80801C4.21977 16.3832 3.74286 15.9064 3.74286 15.3181C3.74286 14.7298 4.2197 14.2529 4.80801 14.2529H9.63657C10.2248 14.2529 10.7017 14.7298 10.7017 15.3181C10.7017 15.9064 10.2249 16.3832 9.63664 16.3832Z" fill="#F3F0F3"/>
<path d="M9.63664 14.2529H7.50641C8.09464 14.2529 8.57156 14.7298 8.57156 15.3181C8.57156 15.9063 8.09471 16.3832 7.50641 16.3832H9.63664C10.2249 16.3832 10.7018 15.9063 10.7018 15.3181C10.7017 14.7298 10.2249 14.2529 9.63664 14.2529Z" fill="#E2DEE2"/>
<path d="M26.5367 16.0327H30.9392V28.6285H26.5367V16.0327Z" fill="#E2DEE2"/>
<path d="M28.809 16.0327H30.9392V28.6285H28.809V16.0327Z" fill="#CBC4CC"/>
<path d="M31.1522 30.4965H26.3236C25.7354 30.4965 25.2585 30.0197 25.2585 29.4314C25.2585 28.8431 25.7353 28.3662 26.3236 28.3662H31.1522C31.7404 28.3662 32.2173 28.8431 32.2173 29.4314C32.2173 30.0197 31.7404 30.4965 31.1522 30.4965Z" fill="#F3F0F3"/>
<path d="M31.1523 28.3667H29.022C29.6103 28.3667 30.0872 28.8436 30.0872 29.4318C30.0872 30.0201 29.6103 30.497 29.022 30.497H31.1523C31.7405 30.497 32.2174 30.0202 32.2174 29.4318C32.2174 28.8435 31.7405 28.3667 31.1523 28.3667Z" fill="#E2DEE2"/>
<path d="M31.1522 16.3832H26.3236C25.7354 16.3832 25.2585 15.9064 25.2585 15.3181C25.2585 14.7298 25.7353 14.2529 26.3236 14.2529H31.1522C31.7404 14.2529 32.2173 14.7298 32.2173 15.3181C32.2173 15.9064 31.7404 16.3832 31.1522 16.3832Z" fill="#F3F0F3"/>
<path d="M31.1523 14.2529H29.022C29.6103 14.2529 30.0872 14.7298 30.0872 15.3181C30.0872 15.9063 29.6103 16.3832 29.022 16.3832H31.1523C31.7405 16.3832 32.2174 15.9063 32.2174 15.3181C32.2173 14.7298 31.7405 14.2529 31.1523 14.2529Z" fill="#E2DEE2"/>
<path d="M15.7789 16.0327H20.1814V28.6285H15.7789V16.0327Z" fill="#E2DEE2"/>
<path d="M18.0511 16.0327H20.1814V28.6285H18.0511V16.0327Z" fill="#CBC4CC"/>
<path d="M20.3944 30.4965H15.5659C14.9776 30.4965 14.5007 30.0197 14.5007 29.4314C14.5007 28.8431 14.9776 28.3662 15.5659 28.3662H20.3944C20.9827 28.3662 21.4596 28.8431 21.4596 29.4314C21.4596 30.0197 20.9827 30.4965 20.3944 30.4965Z" fill="#F3F0F3"/>
<path d="M20.3944 28.3667H18.2642C18.8524 28.3667 19.3293 28.8436 19.3293 29.4318C19.3293 30.0201 18.8525 30.497 18.2642 30.497H20.3944C20.9826 30.497 21.4595 30.0202 21.4595 29.4318C21.4595 28.8435 20.9826 28.3667 20.3944 28.3667Z" fill="#E2DEE2"/>
<path d="M20.3944 16.3832H15.5659C14.9776 16.3832 14.5007 15.9064 14.5007 15.3181C14.5007 14.7298 14.9776 14.2529 15.5659 14.2529H20.3944C20.9827 14.2529 21.4596 14.7298 21.4596 15.3181C21.4596 15.9064 20.9827 16.3832 20.3944 16.3832Z" fill="#F3F0F3"/>
<path d="M20.3944 14.2529H18.2642C18.8524 14.2529 19.3293 14.7298 19.3293 15.3181C19.3293 15.9063 18.8525 16.3832 18.2642 16.3832H20.3944C20.9826 16.3832 21.4595 15.9063 21.4595 15.3181C21.4595 14.7298 20.9826 14.2529 20.3944 14.2529Z" fill="#E2DEE2"/>
<path d="M34.0281 33.5996H1.93219V30.9231C1.93219 30.5506 2.23423 30.2485 2.60679 30.2485H33.3535C33.7261 30.2485 34.0281 30.5506 34.0281 30.9231V33.5996Z" fill="#E2DEE2"/>
<path d="M33.3535 30.2485H31.2233C31.5958 30.2485 31.8979 30.5506 31.8979 30.9231V33.5996H34.0281V30.9231C34.0281 30.5506 33.7261 30.2485 33.3535 30.2485Z" fill="#CBC4CC"/>
<path d="M35.3909 35.787H0.56938C0.439657 35.787 0.334473 35.6818 0.334473 35.552V33.1951C0.334473 32.8226 0.636516 32.5205 1.00907 32.5205H34.9512C35.3238 32.5205 35.6258 32.8226 35.6258 33.1951V35.552C35.6258 35.6818 35.5206 35.787 35.3909 35.787Z" fill="#F3F0F3"/>
<path d="M34.9512 32.5205H32.8209C33.1935 32.5205 33.4955 32.8226 33.4955 33.1951V35.7869H35.3909C35.5206 35.7869 35.6258 35.6817 35.6258 35.552V33.195C35.6258 32.8225 35.3237 32.5205 34.9512 32.5205Z" fill="#E2DEE2"/>
<path d="M2.0322 14.4132H33.928C34.8123 14.4132 35.1821 13.2277 34.4688 12.6793L19.1406 0.893977C18.4498 0.362815 17.5104 0.362815 16.8196 0.893977L1.49139 12.6793C0.778054 13.2277 1.14785 14.4132 2.0322 14.4132Z" fill="#E2DEE2"/>
<path d="M6.09723 11.825L17.8245 2.80831C17.9162 2.73773 18.044 2.73773 18.1358 2.80831L29.863 11.825C30.0564 11.9736 29.9513 12.2828 29.7074 12.2828H6.25287C6.009 12.2828 5.90389 11.9737 6.09723 11.825Z" fill="#CBC4CC"/>
<path d="M54.1424 18.3306H52.6904V12.9066C52.6904 12.5786 52.7224 12.2306 52.7864 11.8626H52.7144C52.5544 12.2946 52.4024 12.6306 52.2584 12.8706L49.1264 18.3306H47.6024V10.0506H49.0424V15.4026C49.0424 15.8026 49.0104 16.1626 48.9464 16.4826H49.0304C49.1344 16.1786 49.2864 15.8466 49.4864 15.4866L52.6064 10.0506H54.1424V18.3306ZM61.3564 12.4506V18.3306H59.9284V15.7506H57.3604V18.3306H55.9204V12.4506H57.3604V14.6826H59.9284V12.4506H61.3564ZM67.9537 13.6026H65.9377V18.3306H64.4977V13.6026H62.4697V12.4506H67.9537V13.6026ZM71.8897 17.2866C72.4897 17.2866 73.1937 17.2386 74.0017 17.1426L74.1337 18.0786C73.8457 18.2146 73.4777 18.3146 73.0297 18.3786C72.5817 18.4426 72.1417 18.4746 71.7097 18.4746C70.9897 18.4746 70.4177 18.3706 69.9937 18.1626C69.5697 17.9546 69.2577 17.6266 69.0577 17.1786C68.8657 16.7306 68.7697 16.1306 68.7697 15.3786C68.7697 14.6026 68.8657 13.9906 69.0577 13.5426C69.2577 13.0946 69.5617 12.7746 69.9697 12.5826C70.3777 12.3826 70.9257 12.2826 71.6137 12.2826C72.5497 12.2826 73.2257 12.4546 73.6417 12.7986C74.0657 13.1346 74.2777 13.6426 74.2777 14.3226C74.2857 14.8586 74.1577 15.2746 73.8937 15.5706C73.6377 15.8586 73.2457 16.0026 72.7177 16.0026H70.3177C70.3577 16.3546 70.4337 16.6226 70.5457 16.8066C70.6657 16.9906 70.8297 17.1186 71.0377 17.1906C71.2457 17.2546 71.5297 17.2866 71.8897 17.2866ZM71.6737 13.4346C71.3217 13.4346 71.0497 13.4786 70.8577 13.5666C70.6657 13.6546 70.5257 13.8106 70.4377 14.0346C70.3497 14.2506 70.2977 14.5666 70.2817 14.9826H72.3097C72.5177 14.9826 72.6577 14.9186 72.7297 14.7906C72.8017 14.6626 72.8377 14.4986 72.8377 14.2986C72.8377 13.9786 72.7537 13.7546 72.5857 13.6266C72.4177 13.4986 72.1137 13.4346 71.6737 13.4346ZM79.3511 12.2946C80.0471 12.2946 80.5551 12.5626 80.8751 13.0986C81.1951 13.6266 81.3551 14.4066 81.3551 15.4386C81.3551 16.1986 81.2711 16.7986 81.1031 17.2386C80.9351 17.6786 80.6871 17.9946 80.3591 18.1866C80.0311 18.3786 79.6111 18.4746 79.0991 18.4746C78.3151 18.4746 77.6391 18.2826 77.0711 17.8986C77.0951 18.3466 77.1031 18.7546 77.0951 19.1226V20.6706H75.6431V12.4506H76.8431L76.9511 13.3146C77.2231 13.0186 77.5831 12.7746 78.0311 12.5826C78.4791 12.3906 78.9191 12.2946 79.3511 12.2946ZM78.6671 17.2866C78.9711 17.2866 79.2071 17.2386 79.3751 17.1426C79.5431 17.0466 79.6631 16.8666 79.7351 16.6026C79.8151 16.3386 79.8551 15.9466 79.8551 15.4266C79.8551 14.9306 79.8191 14.5426 79.7471 14.2626C79.6831 13.9826 79.5751 13.7866 79.4231 13.6746C79.2791 13.5546 79.0791 13.4946 78.8231 13.4946C78.5511 13.4946 78.2831 13.5546 78.0191 13.6746C77.7631 13.7866 77.4551 13.9706 77.0951 14.2266V17.0346L77.3351 17.0946C77.6231 17.1586 77.8631 17.2066 78.0551 17.2386C78.2471 17.2706 78.4511 17.2866 78.6671 17.2866ZM88.2158 12.4506V18.3306H86.7878V15.7506H84.2198V18.3306H82.7798V12.4506H84.2198V14.6826H86.7878V12.4506H88.2158ZM92.7491 17.2866C93.3491 17.2866 94.0531 17.2386 94.8611 17.1426L94.9931 18.0786C94.7051 18.2146 94.3371 18.3146 93.8891 18.3786C93.4411 18.4426 93.0011 18.4746 92.5691 18.4746C91.8491 18.4746 91.2771 18.3706 90.8531 18.1626C90.4291 17.9546 90.1171 17.6266 89.9171 17.1786C89.7251 16.7306 89.6291 16.1306 89.6291 15.3786C89.6291 14.6026 89.7251 13.9906 89.9171 13.5426C90.1171 13.0946 90.4211 12.7746 90.8291 12.5826C91.2371 12.3826 91.7851 12.2826 92.4731 12.2826C93.4091 12.2826 94.0851 12.4546 94.5011 12.7986C94.9251 13.1346 95.1371 13.6426 95.1371 14.3226C95.1451 14.8586 95.0171 15.2746 94.7531 15.5706C94.4971 15.8586 94.1051 16.0026 93.5771 16.0026H91.1771C91.2171 16.3546 91.2931 16.6226 91.4051 16.8066C91.5251 16.9906 91.6891 17.1186 91.8971 17.1906C92.1051 17.2546 92.3891 17.2866 92.7491 17.2866ZM92.5331 13.4346C92.1811 13.4346 91.9091 13.4786 91.7171 13.5666C91.5251 13.6546 91.3851 13.8106 91.2971 14.0346C91.2091 14.2506 91.1571 14.5666 91.1411 14.9826H93.1691C93.3771 14.9826 93.5171 14.9186 93.5891 14.7906C93.6611 14.6626 93.6971 14.4986 93.6971 14.2986C93.6971 13.9786 93.6131 13.7546 93.4451 13.6266C93.2771 13.4986 92.9731 13.4346 92.5331 13.4346ZM101.223 13.6026H99.2073V18.3306H97.7673V13.6026H95.7393V12.4506H101.223V13.6026ZM105.468 15.7986H101.868V14.7666H105.468V15.7986ZM115.014 10.6026C114.718 10.7706 114.442 10.8906 114.186 10.9626C113.938 11.0266 113.634 11.0826 113.274 11.1306C113.226 11.1386 113.094 11.1586 112.878 11.1906C112.67 11.2146 112.462 11.2586 112.254 11.3226C111.486 11.5386 111.014 12.0426 110.838 12.8346C110.758 13.1386 110.706 13.4306 110.682 13.7106H110.706C110.914 13.3746 111.174 13.1106 111.486 12.9186C111.806 12.7266 112.274 12.6306 112.89 12.6306C113.482 12.6306 113.95 12.7266 114.294 12.9186C114.646 13.1106 114.898 13.4106 115.05 13.8186C115.21 14.2266 115.29 14.7626 115.29 15.4266C115.29 16.1066 115.206 16.6706 115.038 17.1186C114.87 17.5586 114.578 17.8946 114.162 18.1266C113.746 18.3586 113.178 18.4746 112.458 18.4746C111.61 18.4746 110.978 18.3226 110.562 18.0186C110.146 17.7066 109.882 17.2986 109.77 16.7946C109.658 16.2826 109.602 15.6066 109.602 14.7666C109.602 13.8706 109.654 13.1346 109.758 12.5586C109.87 11.9746 110.082 11.4866 110.394 11.0946C110.714 10.7026 111.174 10.4146 111.774 10.2306C112.078 10.1346 112.466 10.0546 112.938 9.99057C113.314 9.93457 113.63 9.87457 113.886 9.81057C114.15 9.73857 114.422 9.62257 114.702 9.46257L115.014 10.6026ZM112.506 13.7706C112.114 13.7706 111.818 13.8306 111.618 13.9506C111.426 14.0626 111.294 14.2386 111.222 14.4786C111.15 14.7106 111.114 15.0346 111.114 15.4506C111.114 15.9386 111.154 16.3146 111.234 16.5786C111.322 16.8426 111.458 17.0306 111.642 17.1426C111.834 17.2546 112.102 17.3106 112.446 17.3106C112.782 17.3106 113.042 17.2546 113.226 17.1426C113.418 17.0306 113.554 16.8426 113.634 16.5786C113.722 16.3146 113.766 15.9426 113.766 15.4626C113.766 15.0066 113.726 14.6586 113.646 14.4186C113.574 14.1786 113.45 14.0106 113.274 13.9146C113.098 13.8186 112.842 13.7706 112.506 13.7706ZM119.609 12.2826C120.369 12.2826 120.929 12.4346 121.289 12.7386C121.649 13.0426 121.829 13.5746 121.829 14.3346V18.3306H120.677L120.521 17.4306C120.257 17.7186 119.937 17.9626 119.561 18.1626C119.185 18.3626 118.757 18.4626 118.277 18.4626C117.725 18.4626 117.277 18.3146 116.933 18.0186C116.589 17.7146 116.417 17.2946 116.417 16.7586V16.1586C116.417 15.6866 116.569 15.3226 116.873 15.0666C117.177 14.8106 117.605 14.6826 118.157 14.6826H120.365V14.3226C120.357 14.0906 120.321 13.9186 120.257 13.8066C120.201 13.6866 120.097 13.6026 119.945 13.5546C119.793 13.5066 119.573 13.4826 119.285 13.4826C118.677 13.4826 117.853 13.5226 116.813 13.6026L116.681 12.5706C117.105 12.4906 117.601 12.4226 118.169 12.3666C118.745 12.3106 119.225 12.2826 119.609 12.2826ZM117.869 16.5666C117.869 16.8226 117.929 17.0066 118.049 17.1186C118.169 17.2306 118.365 17.2866 118.637 17.2866C118.885 17.2866 119.161 17.2306 119.465 17.1186C119.777 16.9986 120.077 16.8226 120.365 16.5906V15.6786H118.493C118.261 15.6866 118.097 15.7466 118.001 15.8586C117.913 15.9706 117.869 16.1306 117.869 16.3386V16.5666ZM128.892 12.4506V18.3306H127.464V15.7506H124.896V18.3306H123.456V12.4506H124.896V14.6826H127.464V12.4506H128.892ZM133.689 15.2826C134.137 15.3386 134.477 15.4546 134.709 15.6306C134.949 15.8066 135.153 16.0786 135.321 16.4466C135.489 16.8146 135.721 17.4426 136.017 18.3306H134.493C134.221 17.5466 134.017 17.0026 133.881 16.6986C133.745 16.3866 133.585 16.1626 133.401 16.0266C133.217 15.8826 132.961 15.8106 132.633 15.8106H131.961C132.001 16.0106 132.021 16.1826 132.021 16.3266V18.3306H130.569V12.4506H132.021V14.0586C132.021 14.2826 131.997 14.5106 131.949 14.7426H132.537C132.873 14.7426 133.137 14.6706 133.329 14.5266C133.529 14.3826 133.697 14.1626 133.833 13.8666C133.969 13.5626 134.141 13.0906 134.349 12.4506H135.825C135.545 13.2746 135.333 13.8466 135.189 14.1666C135.045 14.4866 134.861 14.7346 134.637 14.9106C134.421 15.0786 134.105 15.1906 133.689 15.2466V15.2826ZM50.7104 23.8946C51.5744 23.8946 52.2504 24.0266 52.7384 24.2906C53.2264 24.5546 53.5784 24.9946 53.7944 25.6106C54.0184 26.2266 54.1304 27.0866 54.1304 28.1906C54.1304 29.2946 54.0184 30.1546 53.7944 30.7706C53.5784 31.3866 53.2264 31.8266 52.7384 32.0906C52.2504 32.3546 51.5744 32.4866 50.7104 32.4866C49.8464 32.4866 49.1704 32.3546 48.6824 32.0906C48.1944 31.8266 47.8424 31.3866 47.6264 30.7706C47.4104 30.1546 47.3024 29.2946 47.3024 28.1906C47.3024 27.0866 47.4104 26.2266 47.6264 25.6106C47.8424 24.9946 48.1944 24.5546 48.6824 24.2906C49.1704 24.0266 49.8464 23.8946 50.7104 23.8946ZM50.7104 25.1786C50.2384 25.1786 49.8704 25.2706 49.6064 25.4546C49.3504 25.6386 49.1664 25.9466 49.0544 26.3786C48.9424 26.8026 48.8864 27.4066 48.8864 28.1906C48.8864 28.9746 48.9424 29.5826 49.0544 30.0146C49.1664 30.4386 49.3504 30.7426 49.6064 30.9266C49.8704 31.1106 50.2384 31.2026 50.7104 31.2026C51.1904 31.2026 51.5584 31.1106 51.8144 30.9266C52.0784 30.7426 52.2664 30.4386 52.3784 30.0146C52.4904 29.5826 52.5464 28.9746 52.5464 28.1906C52.5464 27.4066 52.4904 26.8026 52.3784 26.3786C52.2664 25.9466 52.0784 25.6386 51.8144 25.4546C51.5584 25.2706 51.1904 25.1786 50.7104 25.1786ZM60.932 32.3306H59.516V27.5546H57.02V32.3306H55.604V26.4386H60.932V32.3306ZM67.8796 32.3306H66.4156V27.5306H65.4436C65.2196 27.5306 65.0596 27.5786 64.9636 27.6746C64.8756 27.7626 64.8156 27.9346 64.7836 28.1906C64.6876 28.8786 64.6036 29.4386 64.5316 29.8706C64.4676 30.3026 64.3876 30.6786 64.2916 30.9986C64.0436 31.9346 63.4116 32.4026 62.3956 32.4026C62.2756 32.4026 62.1836 32.3986 62.1196 32.3906L61.9756 31.2986C62.2956 31.2426 62.5236 31.1666 62.6596 31.0706C62.7956 30.9746 62.9076 30.8146 62.9956 30.5906C63.1636 30.0786 63.3076 29.1906 63.4276 27.9266C63.4756 27.4306 63.6316 27.0626 63.8956 26.8226C64.1596 26.5746 64.5516 26.4506 65.0716 26.4506H67.8796V32.3306ZM72.4531 26.2826C73.2131 26.2826 73.7731 26.4346 74.1331 26.7386C74.4931 27.0426 74.6731 27.5746 74.6731 28.3346V32.3306H73.5211L73.3651 31.4306C73.1011 31.7186 72.7811 31.9626 72.4051 32.1626C72.0291 32.3626 71.6011 32.4626 71.1211 32.4626C70.5691 32.4626 70.1211 32.3146 69.7771 32.0186C69.4331 31.7146 69.2611 31.2946 69.2611 30.7586V30.1586C69.2611 29.6866 69.4131 29.3226 69.7171 29.0666C70.0211 28.8106 70.4491 28.6826 71.0011 28.6826H73.2091V28.3226C73.2011 28.0906 73.1651 27.9186 73.1011 27.8066C73.0451 27.6866 72.9411 27.6026 72.7891 27.5546C72.6371 27.5066 72.4171 27.4826 72.1291 27.4826C71.5211 27.4826 70.6971 27.5226 69.6571 27.6026L69.5251 26.5706C69.9491 26.4906 70.4451 26.4226 71.0131 26.3666C71.5891 26.3106 72.0691 26.2826 72.4531 26.2826ZM70.7131 30.5666C70.7131 30.8226 70.7731 31.0066 70.8931 31.1186C71.0131 31.2306 71.2091 31.2866 71.4811 31.2866C71.7291 31.2866 72.0051 31.2306 72.3091 31.1186C72.6211 30.9986 72.9211 30.8226 73.2091 30.5906V29.6786H71.3371C71.1051 29.6866 70.9411 29.7466 70.8451 29.8586C70.7571 29.9706 70.7131 30.1306 70.7131 30.3386V30.5666ZM81.2194 27.6026H79.2034V32.3306H77.7634V27.6026H75.7354V26.4506H81.2194V27.6026ZM85.2265 26.2826C85.9865 26.2826 86.5465 26.4346 86.9065 26.7386C87.2665 27.0426 87.4465 27.5746 87.4465 28.3346V32.3306H86.2945L86.1385 31.4306C85.8745 31.7186 85.5545 31.9626 85.1785 32.1626C84.8025 32.3626 84.3745 32.4626 83.8945 32.4626C83.3425 32.4626 82.8945 32.3146 82.5505 32.0186C82.2065 31.7146 82.0345 31.2946 82.0345 30.7586V30.1586C82.0345 29.6866 82.1865 29.3226 82.4905 29.0666C82.7945 28.8106 83.2225 28.6826 83.7745 28.6826H85.9825V28.3226C85.9745 28.0906 85.9385 27.9186 85.8745 27.8066C85.8185 27.6866 85.7145 27.6026 85.5625 27.5546C85.4105 27.5066 85.1905 27.4826 84.9025 27.4826C84.2945 27.4826 83.4705 27.5226 82.4305 27.6026L82.2985 26.5706C82.7225 26.4906 83.2185 26.4226 83.7865 26.3666C84.3625 26.3106 84.8425 26.2826 85.2265 26.2826ZM83.4865 30.5666C83.4865 30.8226 83.5465 31.0066 83.6665 31.1186C83.7865 31.2306 83.9825 31.2866 84.2545 31.2866C84.5025 31.2866 84.7785 31.2306 85.0825 31.1186C85.3945 30.9986 85.6945 30.8226 85.9825 30.5906V29.6786H84.1105C83.8785 29.6866 83.7145 29.7466 83.6185 29.8586C83.5305 29.9706 83.4865 30.1306 83.4865 30.3386V30.5666Z" fill="white"/>
</svg>
