<svg width="106" height="28" viewBox="0 0 106 28" fill="none" xmlns="http://www.w3.org/2000/svg">
<path d="M30.0307 15.9838C30.0292 16.0753 29.9914 16.1626 29.9258 16.2265C29.8601 16.2903 29.7718 16.3256 29.6802 16.3245H23.2247C23.3902 17.9214 24.5878 19.3819 26.282 19.3819C27.4407 19.3819 28.2976 18.9437 28.9402 18.0187C28.9701 17.9701 29.0115 17.9296 29.0607 17.9008C29.11 17.8719 29.1655 17.8556 29.2226 17.8532C29.2651 17.852 29.3074 17.8595 29.3469 17.8752C29.3865 17.8909 29.4224 17.9146 29.4525 17.9446C29.4825 17.9747 29.5062 18.0106 29.5219 18.0502C29.5376 18.0897 29.5451 18.132 29.5439 18.1745C29.5441 18.2333 29.5272 18.2908 29.4952 18.3401C28.8428 19.4695 27.5478 20.0245 26.282 20.0245C24.1107 20.0245 22.5529 18.0772 22.5529 16.0032C22.5529 13.9293 24.101 11.9819 26.282 11.9819C28.4631 11.9819 30.021 13.9098 30.0307 15.9838ZM29.3394 15.6819C29.2031 14.0851 27.9762 12.6246 26.282 12.6246C24.5878 12.6246 23.3902 14.0851 23.2247 15.6819H29.3394Z" fill="white"/>
<path d="M37.8786 12.1375C37.963 12.1399 38.0433 12.1746 38.1031 12.2343C38.1628 12.294 38.1974 12.3743 38.1999 12.4588C38.2011 12.5013 38.1936 12.5436 38.1779 12.5832C38.1622 12.6227 38.1385 12.6586 38.1085 12.6887C38.0784 12.7188 38.0425 12.7424 38.0029 12.7581C37.9634 12.7738 37.9211 12.7813 37.8786 12.7801H36.1454V19.5861C36.1447 19.6711 36.1106 19.7524 36.0505 19.8125C35.9904 19.8726 35.9091 19.9067 35.8241 19.9074C35.7397 19.905 35.6593 19.8703 35.5996 19.8106C35.5399 19.7509 35.5052 19.6706 35.5028 19.5861V12.7801H33.8378C33.7953 12.7813 33.7529 12.7738 33.7134 12.7581C33.6739 12.7424 33.638 12.7188 33.6079 12.6887C33.5778 12.6586 33.5542 12.6227 33.5385 12.5832C33.5228 12.5436 33.5153 12.5013 33.5165 12.4588C33.5172 12.3738 33.5513 12.2925 33.6114 12.2324C33.6715 12.1723 33.7528 12.1382 33.8378 12.1375H35.5028V9.65459C35.503 9.57232 35.5325 9.49281 35.586 9.43034C35.6395 9.36787 35.7136 9.32655 35.7949 9.31381C35.8403 9.30777 35.8865 9.31162 35.9303 9.32508C35.9741 9.33854 36.0145 9.36131 36.0487 9.39181C36.0829 9.42232 36.1102 9.45985 36.1285 9.50184C36.1469 9.54383 36.156 9.5893 36.1552 9.63512V12.1375H37.8786Z" fill="white"/>
<path d="M48.4429 15.4282V19.5469C48.4405 19.6313 48.4059 19.7116 48.3461 19.7713C48.2864 19.8311 48.2061 19.8657 48.1216 19.8682C48.0791 19.8694 48.0368 19.8619 47.9973 19.8462C47.9577 19.8305 47.9218 19.8068 47.8917 19.7768C47.8617 19.7467 47.838 19.7108 47.8223 19.6712C47.8066 19.6317 47.7991 19.5894 47.8003 19.5469V15.4282C47.8003 14.0358 47.0116 12.6532 45.4635 12.6532C43.4772 12.6532 42.6203 14.3864 42.7372 16.1682C42.7372 16.2169 42.7567 16.4213 42.7567 16.4506V19.5371C42.7565 19.6194 42.727 19.6989 42.6734 19.7614C42.6199 19.8238 42.5458 19.8652 42.4646 19.8779C42.4191 19.8839 42.3729 19.8801 42.3291 19.8666C42.2853 19.8532 42.2449 19.8304 42.2107 19.7999C42.1765 19.7694 42.1493 19.7319 42.1309 19.6899C42.1126 19.6479 42.1035 19.6024 42.1043 19.5566V6.01272C42.1051 5.92774 42.1392 5.84645 42.1993 5.78636C42.2593 5.72627 42.3406 5.69217 42.4256 5.69141C42.5101 5.69386 42.5904 5.72849 42.6501 5.78823C42.7098 5.84797 42.7445 5.92828 42.7469 6.01272V13.6658C43.3019 12.6727 44.2951 12.0008 45.4538 12.0008C47.3622 12.0008 48.4429 13.6658 48.4429 15.4282Z" fill="white"/>
<path d="M60.0395 15.9838C60.038 16.0753 60.0002 16.1626 59.9345 16.2265C59.8689 16.2903 59.7806 16.3256 59.689 16.3245H53.2335C53.399 17.9214 54.5966 19.3819 56.2908 19.3819C57.4495 19.3819 58.3064 18.9437 58.949 18.0187C58.9789 17.9701 59.0203 17.9296 59.0695 17.9008C59.1188 17.8719 59.1743 17.8556 59.2313 17.8532C59.2739 17.852 59.3162 17.8595 59.3557 17.8752C59.3953 17.8909 59.4312 17.9146 59.4612 17.9446C59.4913 17.9747 59.5149 18.0106 59.5307 18.0502C59.5464 18.0897 59.5539 18.132 59.5527 18.1745C59.5529 18.2333 59.536 18.2908 59.504 18.3401C58.8516 19.4695 57.5566 20.0245 56.2908 20.0245C54.1195 20.0245 52.5616 18.0772 52.5616 16.0032C52.5616 13.9293 54.1098 11.9819 56.2908 11.9819C58.4524 11.9819 60.0298 13.9098 60.0395 15.9838ZM59.3385 15.6819C59.2021 14.0851 57.9753 12.6246 56.2811 12.6246C54.5869 12.6246 53.3893 14.0851 53.2238 15.6819H59.3385Z" fill="white"/>
<path d="M67.975 12.439C67.9811 12.5255 67.9529 12.6109 67.8963 12.6765C67.8398 12.7422 67.7595 12.7828 67.6731 12.7896C65.7745 13.0719 64.9176 14.6201 64.9176 16.4214V19.508C64.9174 19.5902 64.8879 19.6697 64.8344 19.7322C64.7809 19.7947 64.7068 19.836 64.6255 19.8487C64.5801 19.8548 64.5339 19.8509 64.4901 19.8375C64.4463 19.824 64.4059 19.8012 64.3717 19.7707C64.3375 19.7402 64.3102 19.7027 64.2919 19.6607C64.2735 19.6187 64.2644 19.5733 64.2652 19.5274V12.4877C64.2654 12.4055 64.2949 12.3259 64.3485 12.2635C64.402 12.201 64.4761 12.1597 64.5574 12.1469C64.6028 12.1409 64.649 12.1448 64.6928 12.1582C64.7366 12.1717 64.777 12.1944 64.8112 12.225C64.8454 12.2555 64.8726 12.293 64.891 12.335C64.9094 12.377 64.9184 12.4224 64.9176 12.4683V13.8996C65.4531 12.994 66.5144 12.1372 67.6244 12.1372C67.79 12.1372 67.975 12.254 67.975 12.439Z" fill="white"/>
<path d="M78.588 15.9838C78.5865 16.0753 78.5488 16.1626 78.4831 16.2265C78.4174 16.2903 78.3291 16.3256 78.2375 16.3245H71.782C71.9475 17.9214 73.1452 19.3819 74.8394 19.3819C75.998 19.3819 76.8549 18.9437 77.4975 18.0187C77.5274 17.9701 77.5688 17.9296 77.618 17.9008C77.6673 17.8719 77.7228 17.8556 77.7799 17.8532C77.8224 17.852 77.8647 17.8595 77.9042 17.8752C77.9438 17.8909 77.9797 17.9146 78.0098 17.9446C78.0398 17.9747 78.0635 18.0106 78.0792 18.0502C78.0949 18.0897 78.1024 18.132 78.1012 18.1745C78.1014 18.2333 78.0845 18.2908 78.0525 18.3401C77.4001 19.4695 76.1051 20.0245 74.8394 20.0245C72.6681 20.0245 71.1102 18.0772 71.1102 16.0032C71.1102 13.9293 72.6583 11.9819 74.8394 11.9819C77.0204 11.9819 78.5783 13.9098 78.588 15.9838ZM77.8967 15.6819C77.7604 14.0851 76.5336 12.6246 74.8394 12.6246C73.1452 12.6246 71.9475 14.0851 71.782 15.6819H77.8967Z" fill="white"/>
<path d="M89.0259 12.5174V19.5863C89.0235 19.6708 88.9888 19.7511 88.9291 19.8108C88.8694 19.8706 88.7891 19.9052 88.7046 19.9076C88.6621 19.9088 88.6198 19.9014 88.5802 19.8856C88.5407 19.8699 88.5048 19.8463 88.4747 19.8162C88.4446 19.7861 88.421 19.7502 88.4053 19.7107C88.3896 19.6712 88.3821 19.6288 88.3833 19.5863V18.2426C87.8478 19.304 86.9033 20.0732 85.696 20.0732C83.7778 20.0732 82.7165 18.4082 82.7165 16.6458V12.5077C82.7173 12.4227 82.7514 12.3414 82.8114 12.2813C82.8715 12.2212 82.9528 12.1871 83.0378 12.1864C83.1222 12.1888 83.2026 12.2235 83.2623 12.2832C83.322 12.3429 83.3567 12.4232 83.3591 12.5077V16.6458C83.3591 18.0382 84.1478 19.4208 85.696 19.4208C87.8673 19.4208 88.3833 17.3858 88.3833 15.1366V12.4979C88.384 12.4459 88.3972 12.3947 88.4218 12.3487C88.4463 12.3028 88.4815 12.2634 88.5244 12.2338C88.5673 12.2043 88.6167 12.1854 88.6683 12.1789C88.72 12.1723 88.7725 12.1782 88.8215 12.1961C88.8827 12.2245 88.9344 12.2699 88.9707 12.3269C89.0069 12.3838 89.0261 12.4499 89.0259 12.5174Z" fill="white"/>
<path d="M105.374 15.3991V19.5373C105.372 19.6217 105.337 19.702 105.277 19.7617C105.217 19.8215 105.137 19.8561 105.053 19.8586C105.01 19.8598 104.968 19.8523 104.928 19.8366C104.889 19.8209 104.853 19.7972 104.823 19.7671C104.793 19.7371 104.769 19.7012 104.753 19.6616C104.738 19.6221 104.73 19.5798 104.731 19.5373V15.3991C104.731 14.0068 103.943 12.6436 102.395 12.6436C100.447 12.6436 99.7072 14.7273 99.7072 16.3436V19.5373C99.7048 19.6217 99.6701 19.702 99.6104 19.7617C99.5507 19.8215 99.4704 19.8561 99.3859 19.8586C99.3434 19.8598 99.3011 19.8523 99.2615 19.8366C99.222 19.8209 99.1861 19.7972 99.156 19.7671C99.1259 19.7371 99.1023 19.7012 99.0866 19.6616C99.0709 19.6221 99.0634 19.5798 99.0646 19.5373V15.3991C99.0646 14.0068 98.2759 12.6436 96.7278 12.6436C94.7609 12.6436 93.9528 14.1918 94.0209 16.256C94.0209 16.3046 94.0404 16.3923 94.0209 16.4215V19.5275C94.0208 19.6098 93.9913 19.6893 93.9377 19.7518C93.8842 19.8142 93.8101 19.8556 93.7288 19.8683C93.6834 19.8743 93.6372 19.8705 93.5934 19.857C93.5496 19.8436 93.5092 19.8208 93.475 19.7903C93.4408 19.7598 93.4136 19.7223 93.3952 19.6803C93.3768 19.6383 93.3678 19.5928 93.3686 19.547V12.4878C93.3687 12.4055 93.3983 12.326 93.4518 12.2636C93.5053 12.2011 93.5794 12.1598 93.6607 12.147C93.7061 12.141 93.7523 12.1448 93.7961 12.1583C93.8399 12.1718 93.8803 12.1945 93.9145 12.225C93.9487 12.2555 93.976 12.2931 93.9943 12.3351C94.0127 12.3771 94.0218 12.4225 94.0209 12.4683V13.6465C94.5759 12.6533 95.5691 12.001 96.7278 12.001C98.0422 12.001 99.0646 12.8383 99.4833 14.0554C100.019 12.8481 101.061 12.001 102.395 12.001C104.293 12.001 105.374 13.6465 105.374 15.3991Z" fill="white"/>
<path opacity="0.6" d="M8.29821 10.5693L0.216675 14.2401L8.29821 19.0209L16.3895 14.2401L8.29821 10.5693Z" fill="white"/>
<path opacity="0.45" d="M0.216675 14.2405L8.29821 19.0213V0.823242L0.216675 14.2405Z" fill="white"/>
<path opacity="0.8" d="M8.29828 0.823242V19.0213L16.3896 14.2405L8.29828 0.823242Z" fill="white"/>
<path opacity="0.45" d="M0.216675 15.7793L8.29821 27.1713V20.5503L0.216675 15.7793Z" fill="white"/>
<path opacity="0.8" d="M8.29828 20.5503V27.1713L16.3896 15.7793L8.29828 20.5503Z" fill="white"/>
</svg>
