<svg width="101" height="22" viewBox="0 0 101 22" fill="none" xmlns="http://www.w3.org/2000/svg">
<path d="M20.6391 13.1676C19.2414 18.7739 13.5631 22.1858 7.95621 20.7877C2.35157 19.39 -1.06034 13.7114 0.338042 8.10549C1.73511 2.49856 7.41334 -0.913665 13.0186 0.484061C18.6252 1.88179 22.0368 7.56099 20.6391 13.1676Z" fill="white"/>
<path d="M15.1025 9.14503C15.3108 7.75254 14.2506 7.00396 12.8008 6.50459L13.2711 4.61828L12.1229 4.33213L11.6651 6.16873C11.3632 6.09351 11.0532 6.02255 10.7451 5.95224L11.2062 4.10353L10.0587 3.81738L9.58809 5.70303C9.33824 5.64613 9.09297 5.58989 8.85489 5.5307L8.8562 5.52481L7.27273 5.12942L6.96728 6.35579C6.96728 6.35579 7.81919 6.55102 7.80121 6.56312C8.26624 6.67922 8.35029 6.98695 8.33622 7.23092L7.80055 9.37983C7.8326 9.38801 7.87414 9.39978 7.91992 9.4181C7.88166 9.40861 7.84078 9.39815 7.79859 9.38801L7.04772 12.3983C6.99082 12.5396 6.84661 12.7515 6.52154 12.6711C6.53299 12.6877 5.68696 12.4627 5.68696 12.4627L5.11694 13.7771L6.61114 14.1496C6.88912 14.2192 7.16153 14.2921 7.4297 14.3608L6.95453 16.2687L8.10142 16.5549L8.57201 14.6673C8.88531 14.7523 9.18945 14.8308 9.48704 14.9047L9.01809 16.7835L10.1663 17.0696L10.6415 15.1653C12.5994 15.5358 14.0717 15.3864 14.6914 13.6155C15.1908 12.1897 14.6665 11.3672 13.6364 10.8309C14.3866 10.6579 14.9517 10.1644 15.1025 9.14503ZM12.479 12.8238C12.1242 14.2496 9.72348 13.4788 8.94515 13.2855L9.57567 10.7579C10.354 10.9522 12.8499 11.3368 12.479 12.8238ZM12.8342 9.12442C12.5104 10.4214 10.5123 9.76246 9.8641 9.6009L10.4358 7.30843C11.0839 7.46999 13.1714 7.7715 12.8342 9.12442Z" fill="#E3E2E2"/>
<path d="M30.692 6.50251C31.5407 6.50251 32.2739 6.65457 32.89 6.95315C33.5091 7.25467 34.0199 7.66085 34.4297 8.17167C34.8339 8.6851 35.1347 9.2852 35.329 9.97295C35.5219 10.6627 35.6187 11.404 35.6187 12.1977C35.6187 13.4169 35.3954 14.5687 34.9444 15.6544C34.4934 16.7418 33.8816 17.685 33.1032 18.4895C32.3255 19.293 31.4073 19.9264 30.3483 20.3944C29.291 20.8627 28.1415 21.0969 26.9073 21.0969C26.7477 21.0969 26.4671 21.0923 26.0708 21.0841C25.6744 21.0759 25.2189 21.0351 24.7087 20.9661C24.1953 20.8944 23.6524 20.7885 23.0791 20.6465C22.5062 20.5072 21.962 20.312 21.4495 20.0641L26.0319 0.809904L30.1361 0.173828L28.4954 7.00646C28.8466 6.84818 29.2004 6.72554 29.5536 6.63626C29.9072 6.54829 30.2865 6.50251 30.692 6.50251ZM27.2494 17.841C27.8675 17.841 28.4499 17.6889 28.997 17.3903C29.5458 17.0914 30.0193 16.6879 30.416 16.1852C30.8127 15.6803 31.1267 15.1116 31.3556 14.4762C31.5845 13.8407 31.7003 13.1778 31.7003 12.4881C31.7003 11.6408 31.5587 10.9799 31.2764 10.5021C30.9942 10.0263 30.4719 9.78687 29.7136 9.78687C29.465 9.78687 29.1449 9.83428 28.7478 9.91898C28.3495 10.0089 27.9931 10.1957 27.6735 10.4766L25.9266 17.7327C26.0319 17.7514 26.1251 17.769 26.2045 17.7857C26.2824 17.8037 26.3684 17.8164 26.4541 17.8253C26.5446 17.8354 26.6483 17.8406 26.7736 17.8406C26.8988 17.8406 27.0555 17.841 27.2494 17.841Z" fill="white"/>
<path d="M39.875 20.7284H35.9549L39.2654 6.79789H43.2123L39.875 20.7284ZM41.7826 5.1006C41.2354 5.1006 40.7393 4.93774 40.2992 4.61137C39.8554 4.28695 39.6356 3.78758 39.6356 3.11455C39.6356 2.74436 39.7108 2.39705 39.86 2.06936C40.0114 1.74233 40.2092 1.46076 40.4571 1.22138C40.7047 0.983953 40.9915 0.794272 41.3172 0.65136C41.6449 0.510738 41.9935 0.44043 42.365 0.44043C42.9118 0.44043 43.4053 0.603291 43.8471 0.929667C44.2873 1.25768 44.5087 1.75705 44.5087 2.42648C44.5087 2.79799 44.4338 3.1466 44.2834 3.47363C44.1339 3.80066 43.9361 4.08223 43.6882 4.32161C43.4426 4.55936 43.1531 4.74839 42.8281 4.88999C42.5001 5.03291 42.1528 5.1006 41.7826 5.1006Z" fill="white"/>
<path d="M46.6478 3.32748L50.7536 2.69141L49.7454 6.79759H54.1426L53.3486 10.028H48.9779L47.8136 14.9007C47.7064 15.3069 47.6455 15.6863 47.6285 16.0388C47.6092 16.393 47.654 16.6971 47.76 16.9532C47.8653 17.2099 48.0547 17.4078 48.3294 17.5477C48.6028 17.69 48.9942 17.7616 49.5076 17.7616C49.9305 17.7616 50.3425 17.7214 50.7409 17.6416C51.1369 17.5631 51.5382 17.4539 51.9443 17.311L52.2367 20.3314C51.7069 20.5257 51.1333 20.6928 50.5152 20.8334C49.8962 20.976 49.1633 21.0446 48.3163 21.0446C47.0984 21.0446 46.1543 20.8638 45.4816 20.5037C44.8099 20.1411 44.335 19.6456 44.0508 19.0184C43.7706 18.3934 43.6453 17.673 43.6803 16.8613C43.7166 16.0476 43.8392 15.1925 44.0508 14.2918L46.6478 3.32748Z" fill="white"/>
<path d="M53.97 15.1657C53.97 13.9658 54.1642 12.8343 54.5524 11.775C54.9399 10.7148 55.4982 9.78766 56.2226 8.99199C56.9443 8.20025 57.8237 7.57301 58.8587 7.11255C59.8889 6.65471 61.0423 6.42383 62.3135 6.42383C63.1091 6.42383 63.8198 6.49905 64.4451 6.64981C65.073 6.80188 65.641 6.99843 66.1548 7.24501L64.8028 10.3191C64.4496 10.1758 64.083 10.0496 63.704 9.93515C63.3247 9.8184 62.8616 9.76215 62.3138 9.76215C61.0054 9.76215 59.971 10.2131 59.2011 11.1121C58.4343 12.0118 58.048 13.2228 58.048 14.7418C58.048 15.6421 58.2423 16.3701 58.6321 16.927C59.02 17.484 59.7365 17.761 60.7768 17.761C61.2902 17.761 61.7857 17.7073 62.2602 17.6027C62.7383 17.4967 63.1605 17.3633 63.5323 17.2057L63.825 20.3569C63.3292 20.5492 62.7824 20.7229 62.1827 20.8749C61.5816 21.0218 60.866 21.098 60.0364 21.098C58.9411 21.098 58.014 20.9377 57.2556 20.6222C56.4969 20.3017 55.87 19.8762 55.3762 19.3373C54.8798 18.797 54.5233 18.1662 54.3029 17.4421C54.0825 16.7187 53.97 15.9587 53.97 15.1657Z" fill="white"/>
<path d="M71.3843 21.098C70.4487 21.098 69.636 20.9554 68.9466 20.6732C68.2592 20.3909 67.6898 19.9949 67.2395 19.4815C66.7885 18.9707 66.4511 18.3653 66.2198 17.6678C65.9886 16.9705 65.8774 16.1984 65.8774 15.3524C65.8774 14.2912 66.0478 13.2303 66.3922 12.1724C66.7349 11.1121 67.2434 10.1595 67.9165 9.31281C68.5843 8.46483 69.4081 7.77151 70.378 7.23093C71.347 6.69395 72.4615 6.42383 73.7134 6.42383C74.632 6.42383 75.4404 6.56674 76.1393 6.84896C76.8349 7.13054 77.4079 7.52984 77.8608 8.04066C78.3088 8.5541 78.6493 9.15682 78.8782 9.85536C79.1087 10.5513 79.2226 11.3253 79.2226 12.172C79.2226 13.23 79.0545 14.2909 78.7209 15.3521C78.387 16.408 77.8915 17.363 77.2375 18.2116C76.5847 19.0583 75.7685 19.7513 74.788 20.2896C73.8089 20.8279 72.6734 21.098 71.3843 21.098ZM73.3435 9.76248C72.7624 9.76248 72.2486 9.93122 71.8088 10.2645C71.3673 10.6016 70.9964 11.0255 70.6975 11.5366C70.3954 12.0501 70.1713 12.6099 70.0199 13.2185C69.8698 13.8284 69.7962 14.405 69.7962 14.9528C69.7962 15.8367 69.9388 16.5251 70.2191 17.0206C70.5033 17.5134 71.0138 17.7613 71.7558 17.7613C72.3389 17.7613 72.85 17.5939 73.2925 17.257C73.7314 16.9225 74.1026 16.4983 74.4038 15.9862C74.704 15.4754 74.9299 14.9139 75.0814 14.3043C75.2295 13.6963 75.3051 13.1165 75.3051 12.5697C75.3051 11.688 75.1631 10.998 74.8802 10.5032C74.5977 10.0104 74.0849 9.76248 73.3435 9.76248Z" fill="white"/>
<path d="M83.4942 20.7284H79.5709L82.8814 6.79789H86.8303L83.4942 20.7284ZM85.3989 5.1006C84.8521 5.1006 84.3563 4.93774 83.9168 4.61137C83.4753 4.28695 83.2535 3.78758 83.2535 3.11455C83.2535 2.74436 83.3297 2.39705 83.4792 2.06936C83.6286 1.74233 83.8278 1.46076 84.0757 1.22138C84.3219 0.983953 84.6114 0.794272 84.9364 0.65136C85.2622 0.510738 85.6108 0.44043 85.981 0.44043C86.5291 0.44043 87.0242 0.603291 87.465 0.929667C87.9062 1.25768 88.1289 1.75705 88.1289 2.42648C88.1289 2.79799 88.0498 3.1466 87.9016 3.47363C87.7535 3.80066 87.5543 4.08223 87.3074 4.32161C87.0589 4.55936 86.773 4.74839 86.4473 4.88999C86.119 5.03291 85.771 5.1006 85.3989 5.1006Z" fill="white"/>
<path d="M89.6555 7.43116C89.9531 7.34417 90.2854 7.23953 90.6467 7.12572C91.0094 7.01192 91.4146 6.90596 91.8672 6.81047C92.3149 6.71203 92.8202 6.63223 93.3758 6.57043C93.9314 6.50731 94.5645 6.47656 95.268 6.47656C97.3355 6.47656 98.7607 7.07863 99.5475 8.27916C100.334 9.47969 100.47 11.1227 99.9596 13.2052L98.1563 20.7269H94.2104L95.958 13.3635C96.0646 12.9037 96.1484 12.4592 96.2102 12.025C96.2726 11.5946 96.269 11.2152 96.1961 10.8869C96.1264 10.5625 95.9623 10.2969 95.7075 10.0912C95.4488 9.88879 95.058 9.78709 94.5279 9.78709C94.0168 9.78709 93.4968 9.84203 92.966 9.94799L90.3965 20.7266H86.449L89.6555 7.43116Z" fill="white"/>
</svg>
