<svg width="132" height="36" viewBox="0 0 132 36" fill="none" xmlns="http://www.w3.org/2000/svg">
<path d="M69.6995 6.92269V11.4877C69.6995 12.6464 69.4759 13.464 69.0285 13.9407C68.5885 14.4174 67.8259 14.6557 66.7405 14.6557C65.5965 14.6557 64.7899 14.4174 64.3205 13.9407C63.8585 13.464 63.6275 12.6464 63.6275 11.4877V6.92269H65.2995V11.4877C65.2995 12.1844 65.3949 12.661 65.5855 12.9177C65.7835 13.1744 66.1429 13.3027 66.6635 13.3027C67.1769 13.3027 67.5289 13.1744 67.7195 12.9177C67.9175 12.661 68.0165 12.1844 68.0165 11.4877V6.92269H69.6995ZM73.9748 11.6417L72.4458 11.1027C71.8812 10.8974 71.4778 10.6187 71.2358 10.2667C70.9938 9.9147 70.8728 9.4527 70.8728 8.8807C70.8728 8.04469 71.0745 7.48736 71.4778 7.20869C71.8885 6.9227 72.6072 6.7797 73.6338 6.7797C74.6018 6.7797 75.4342 6.8787 76.1308 7.07669L76.0208 8.2207C75.3828 8.19869 74.5908 8.18769 73.6448 8.18769C73.2048 8.18769 72.9115 8.22803 72.7648 8.3087C72.6182 8.38203 72.5448 8.5727 72.5448 8.8807C72.5448 9.13003 72.5998 9.3097 72.7098 9.41969C72.8198 9.5297 73.0288 9.63603 73.3368 9.7387L74.7778 10.2337C75.3645 10.439 75.7788 10.7214 76.0208 11.0807C76.2628 11.4327 76.3838 11.8947 76.3838 12.4667C76.3838 13.3174 76.1785 13.8967 75.7678 14.2047C75.3572 14.5054 74.6238 14.6557 73.5678 14.6557C72.7098 14.6557 71.8408 14.5604 70.9608 14.3697L71.0598 13.1597C72.6218 13.1964 73.4578 13.2147 73.5678 13.2147C74.0152 13.2147 74.3122 13.167 74.4588 13.0717C74.6128 12.9764 74.6898 12.7784 74.6898 12.4777C74.6898 12.221 74.6385 12.0414 74.5358 11.9387C74.4332 11.8287 74.2462 11.7297 73.9748 11.6417ZM77.5722 14.5127V6.92269C78.6135 6.85669 79.5962 6.82369 80.5202 6.82369C81.7302 6.82369 82.5699 7.10236 83.0392 7.6597C83.5159 8.21703 83.7542 9.23636 83.7542 10.7177C83.7542 12.199 83.5159 13.2184 83.0392 13.7757C82.5699 14.333 81.7302 14.6117 80.5202 14.6117C79.5962 14.6117 78.6135 14.5787 77.5722 14.5127ZM79.2442 8.14369V13.2807C79.3689 13.2807 79.5705 13.2844 79.8492 13.2917C80.1352 13.2917 80.3589 13.2917 80.5202 13.2917C81.0849 13.2917 81.4699 13.112 81.6752 12.7527C81.8879 12.3934 81.9942 11.715 81.9942 10.7177C81.9942 9.72036 81.8879 9.04203 81.6752 8.68269C81.4699 8.31603 81.0849 8.13269 80.5202 8.13269L79.2442 8.14369ZM90.6058 8.28669H88.3398V14.5127H86.6568V8.28669H84.3908V6.92269H90.6058V8.28669ZM99.1029 8.28669H96.8369V14.5127H95.1539V8.28669H92.8879V6.92269H99.1029V8.28669ZM106.05 14.5127H104.279L103.707 12.1917C103.634 11.9497 103.535 11.7847 103.41 11.6967C103.293 11.6014 103.121 11.5537 102.893 11.5537L101.716 11.5427V14.5127H100.066V6.92269C100.748 6.85669 101.713 6.82369 102.959 6.82369C103.979 6.82369 104.701 6.98503 105.126 7.30769C105.552 7.63036 105.764 8.21703 105.764 9.06769C105.764 9.62503 105.651 10.0614 105.423 10.3767C105.203 10.692 104.833 10.8827 104.312 10.9487V11.0037C104.892 11.1357 105.251 11.517 105.39 12.1477L106.05 14.5127ZM101.716 10.2557H102.926C103.366 10.2557 103.667 10.1824 103.828 10.0357C103.99 9.8817 104.07 9.5957 104.07 9.1777C104.07 8.75969 103.99 8.47736 103.828 8.33069C103.674 8.18403 103.374 8.1107 102.926 8.1107L101.716 8.12169V10.2557ZM112.338 13.0937L112.481 14.3367C111.821 14.542 111.011 14.6447 110.05 14.6447C108.877 14.6447 108.052 14.3514 107.575 13.7647C107.099 13.178 106.86 12.1624 106.86 10.7177C106.86 9.27303 107.099 8.25736 107.575 7.67069C108.052 7.08403 108.877 6.7907 110.05 6.7907C110.901 6.7907 111.66 6.87503 112.327 7.0437L112.184 8.2977C111.59 8.26103 110.879 8.24269 110.05 8.24269C109.5 8.24269 109.123 8.41869 108.917 8.7707C108.719 9.11536 108.62 9.76436 108.62 10.7177C108.62 11.671 108.719 12.3237 108.917 12.6757C109.123 13.0204 109.5 13.1927 110.05 13.1927C111.07 13.1927 111.832 13.1597 112.338 13.0937ZM113.416 8.3197L113.35 7.05469C114.2 6.8787 115.051 6.7907 115.902 6.7907C116.752 6.7907 117.387 6.91536 117.805 7.16469C118.23 7.41403 118.443 7.87603 118.443 8.55069C118.443 9.00536 118.358 9.4087 118.19 9.7607C118.028 10.1054 117.702 10.538 117.211 11.0587L115.264 13.0827C115.542 13.0314 115.916 13.0057 116.386 13.0057H118.663V14.5127H113.284V13.5777C113.284 13.2917 113.364 13.0644 113.526 12.8957L115.385 10.8937C116.294 9.94769 116.745 9.22536 116.738 8.7267C116.73 8.51403 116.65 8.37836 116.496 8.3197C116.342 8.2537 116.078 8.2207 115.704 8.2207C114.926 8.2207 114.164 8.2537 113.416 8.3197ZM122.602 6.7797C123.687 6.7797 124.446 7.07303 124.879 7.6597C125.312 8.24636 125.528 9.26569 125.528 10.7177C125.528 12.1697 125.312 13.189 124.879 13.7757C124.446 14.3624 123.687 14.6557 122.602 14.6557C121.524 14.6557 120.769 14.3624 120.336 13.7757C119.903 13.189 119.687 12.1697 119.687 10.7177C119.687 9.26569 119.903 8.24636 120.336 7.6597C120.769 7.07303 121.524 6.7797 122.602 6.7797ZM122.591 8.1107C122.1 8.1107 121.766 8.29036 121.59 8.64969C121.421 9.0017 121.337 9.69103 121.337 10.7177C121.337 11.7444 121.421 12.4374 121.59 12.7967C121.766 13.1487 122.1 13.3247 122.591 13.3247C123.097 13.3247 123.438 13.1487 123.614 12.7967C123.79 12.4374 123.878 11.7444 123.878 10.7177C123.878 9.69103 123.79 9.0017 123.614 8.64969C123.438 8.29036 123.097 8.1107 122.591 8.1107Z" fill="white"/>
<path d="M71.4067 20.7043H68.3167V29.1943H66.0217V20.7043H62.9317V18.8443H71.4067V20.7043ZM75.7867 26.2393H73.1167C73.1867 26.7793 73.3467 27.1443 73.5967 27.3343C73.8567 27.5143 74.2817 27.6043 74.8717 27.6043C75.6617 27.6043 76.5817 27.5493 77.6317 27.4393L77.8417 28.8193C77.0717 29.1893 75.9967 29.3743 74.6167 29.3743C73.2267 29.3743 72.2367 29.0743 71.6467 28.4743C71.0567 27.8743 70.7617 26.8843 70.7617 25.5043C70.7617 24.0543 71.0467 23.0393 71.6167 22.4593C72.1967 21.8793 73.1667 21.5893 74.5267 21.5893C75.7567 21.5893 76.6467 21.8043 77.1967 22.2343C77.7467 22.6543 78.0267 23.2993 78.0367 24.1693C78.0367 24.8593 77.8567 25.3793 77.4967 25.7293C77.1467 26.0693 76.5767 26.2393 75.7867 26.2393ZM73.0717 24.9043H75.1717C75.4417 24.9043 75.6217 24.8393 75.7117 24.7093C75.8117 24.5793 75.8617 24.3893 75.8617 24.1393C75.8617 23.7893 75.7717 23.5493 75.5917 23.4193C75.4117 23.2793 75.0817 23.2093 74.6017 23.2093C74.0317 23.2093 73.6417 23.3243 73.4317 23.5543C73.2217 23.7743 73.1017 24.2243 73.0717 24.9043ZM82.3502 23.2843V26.7793C82.3502 27.0593 82.4102 27.2543 82.5302 27.3643C82.6502 27.4743 82.8602 27.5293 83.1602 27.5293H84.1052L84.3452 29.0743C83.7752 29.2743 83.0802 29.3743 82.2602 29.3743C81.5902 29.3743 81.0702 29.1893 80.7002 28.8193C80.3302 28.4393 80.1452 27.9143 80.1452 27.2443V23.2843H78.8402V21.8743L80.1452 21.7993V19.7293H82.3502V21.7993H84.4052V23.2843H82.3502ZM87.8722 18.6943V21.2593C87.8722 21.7693 87.8272 22.2843 87.7372 22.8043C88.7672 21.9943 89.7772 21.5893 90.7672 21.5893C91.4372 21.5893 91.9472 21.7643 92.2972 22.1143C92.6572 22.4643 92.8372 22.9743 92.8372 23.6443V29.1943H90.6322V24.3343C90.6322 24.0043 90.5772 23.7793 90.4672 23.6593C90.3672 23.5293 90.1822 23.4643 89.9122 23.4643C89.3822 23.4643 88.6972 23.6893 87.8572 24.1393V29.1943H85.6372V18.6943H87.8722ZM99.3267 26.2393H96.6567C96.7267 26.7793 96.8867 27.1443 97.1367 27.3343C97.3967 27.5143 97.8217 27.6043 98.4117 27.6043C99.2017 27.6043 100.122 27.5493 101.172 27.4393L101.382 28.8193C100.612 29.1893 99.5367 29.3743 98.1567 29.3743C96.7667 29.3743 95.7767 29.0743 95.1867 28.4743C94.5967 27.8743 94.3017 26.8843 94.3017 25.5043C94.3017 24.0543 94.5867 23.0393 95.1567 22.4593C95.7367 21.8793 96.7067 21.5893 98.0667 21.5893C99.2967 21.5893 100.187 21.8043 100.737 22.2343C101.287 22.6543 101.567 23.2993 101.577 24.1693C101.577 24.8593 101.397 25.3793 101.037 25.7293C100.687 26.0693 100.117 26.2393 99.3267 26.2393ZM96.6117 24.9043H98.7117C98.9817 24.9043 99.1617 24.8393 99.2517 24.7093C99.3517 24.5793 99.4017 24.3893 99.4017 24.1393C99.4017 23.7893 99.3117 23.5493 99.1317 23.4193C98.9517 23.2793 98.6217 23.2093 98.1417 23.2093C97.5717 23.2093 97.1817 23.3243 96.9717 23.5543C96.7617 23.7743 96.6417 24.2243 96.6117 24.9043ZM108.32 21.5893L108.095 23.6443H107.495C107.005 23.6443 106.25 23.8143 105.23 24.1543V29.1943H103.01V21.7993H104.735L104.93 22.8793C105.94 22.0193 106.94 21.5893 107.93 21.5893H108.32Z" fill="white"/>
<path d="M18.5662 35.6077C28.3715 35.6077 36.3203 27.659 36.3203 17.8537C36.3203 8.04837 28.3715 0.0996094 18.5662 0.0996094C8.7609 0.0996094 0.812134 8.04837 0.812134 17.8537C0.812134 27.659 8.7609 35.6077 18.5662 35.6077Z" fill="white"/>
<path d="M20.4586 19.4921V19.4892C20.3359 19.4978 19.7022 19.5349 18.2922 19.5349C17.1647 19.5349 16.3741 19.5035 16.0943 19.4892V19.4921C11.7586 19.3008 8.5246 18.5473 8.5246 17.6424C8.5246 16.7405 11.7614 15.9841 16.0943 15.7928V18.7414C16.3769 18.7613 17.1904 18.8099 18.3122 18.8099C19.6594 18.8099 20.3331 18.7528 20.4586 18.7414V15.7957C24.7858 15.9898 28.0113 16.7433 28.0113 17.6453C28.0113 18.5473 24.783 19.3008 20.4586 19.4949V19.4921ZM20.4586 15.4903V12.8528H26.4956V8.83105H10.0602V12.8528H16.0972V15.4903C11.1906 15.7157 7.50275 16.6862 7.50275 17.8508C7.50275 19.0154 11.1934 19.9859 16.0972 20.2142V28.6688H20.4615V20.2142C25.3596 19.9887 29.0417 19.0182 29.0417 17.8537C29.0417 16.6919 25.3596 15.7186 20.4615 15.4931" fill="#E1E1E1"/>
<circle cx="42.8353" cy="21.1444" r="9.8651" fill="white" stroke="#FFB400"/>
<path d="M36.896 15.7588L47.85 17.9984M36.896 15.7588L42.8842 29.5853M36.896 15.7588L43.9066 21.3576M47.85 17.9984L50.479 20.5299M47.85 17.9984L43.9066 21.3576M50.479 20.5299L42.8842 29.5853M50.479 20.5299L43.9066 21.3576M42.8842 29.5853L43.9066 21.3576" stroke="#E5E5E5"/>
</svg>
